<svg width="446" height="330" viewBox="0 0 446 330" fill="none" xmlns="http://www.w3.org/2000/svg">
<path d="M70.5737 30.2842C161.899 -45.1269 203.854 41.9221 264.998 59.3061C326.141 76.6911 379.216 52.8542 402.292 137.513C425.368 222.171 312.249 320.889 189.972 301.325C67.6947 281.761 -13.6543 99.8342 70.5737 30.2842Z" fill="#EBF3FF"/>
<path d="M262.926 21.6731C256.527 11.0001 233.259 11.6731 230.278 25.1341C227.297 38.5951 211.721 40.1341 213.356 48.9791C214.99 57.8251 201.337 50.9021 199.895 64.2671C198.453 77.6321 227.292 102.939 257.342 87.2571C287.392 71.5751 264.7 58.5012 267.2 50.4712C269.7 42.4412 272.998 36.8652 269.474 33.4992C265.95 30.1342 270.575 23.1151 262.926 21.6731Z" fill="#4A0945"/>
<path d="M266.838 291.278L266.806 291.354C266.811 291.306 266.817 291.278 266.817 291.278H266.838Z" fill="#2B022B"/>
<path d="M297.137 301.335L289.989 309.838L264.794 305.786C265.512 299.792 266.677 292.19 266.806 291.354L266.838 291.278H285.947C285.947 291.278 290.987 295.713 297.137 301.335Z" fill="#FF94A9"/>
<path d="M319.122 324.258C318.065 327.139 291.526 320.508 283.547 318.874C275.568 317.239 264.313 316.182 264.222 312.432C264.19 311.25 264.438 308.709 264.794 305.785L289.989 309.837L297.137 301.334C307.021 310.366 319.775 322.478 319.122 324.258Z" fill="#2B022B"/>
<path d="M253.769 270.958L242.713 272.036L227.539 251.519C232.244 247.737 238.394 243.119 239.071 242.611L239.147 242.58L252.805 255.945C252.805 255.945 253.305 262.638 253.769 270.958Z" fill="#FF94A9"/>
<path d="M253.45 302.719C250.679 304.039 236.349 280.739 231.789 273.989C227.229 267.24 219.925 258.613 222.482 255.869C223.285 255.002 225.24 253.359 227.54 251.518L242.714 272.035L253.77 270.957C254.517 284.326 255.161 301.903 253.45 302.719Z" fill="#2B022B"/>
<path d="M264.951 121.161C264.951 121.161 301.36 175.823 304.18 185.566C307 195.309 254.182 260.948 254.182 260.948C254.182 260.948 233.67 247.615 234.695 244.538C235.721 241.461 271.815 186.955 271.815 186.955C271.815 186.955 235.157 139.158 237.875 131.209C240.593 123.26 252.022 115.035 252.022 115.035" fill="#2B022B"/>
<path d="M213.356 126.328C207.971 164.648 232.675 191.314 251.732 215.672C255.405 254.132 264.636 298.489 265.405 297.72C266.174 296.951 288.481 294.643 287.712 292.079C286.943 289.515 283.097 209.262 280.789 202.852C278.481 196.442 245.919 122.734 245.919 122.734L220.664 129.319" fill="#4A0945"/>
<path d="M308.577 129.195C309.314 120.271 309.891 115.227 306.493 119.778C303.096 124.329 302.262 128.367 302.262 128.367" fill="#FF94A9"/>
<path d="M229.207 132.01L230.362 115.9L230.821 109.496L231.35 102.04L231.809 95.6412L232.343 88.1852L232.802 81.7862L233.309 74.6972L235.187 58.8412L251.712 59.8612L261.051 72.8742C261.051 72.8742 261.472 75.2322 262.114 78.9872C262.422 80.7892 262.778 82.9092 263.166 85.2452C263.544 87.5062 263.948 89.9662 264.358 92.5342C264.687 94.5682 265.016 96.6722 265.345 98.7922C265.723 101.225 266.089 103.685 266.44 106.092C266.753 108.245 267.044 110.354 267.309 112.366C267.805 116.078 268.199 119.466 268.437 122.201C269.714 137.14 252.282 131.621 229.207 132.01Z" fill="white"/>
<path d="M267.308 112.366L230.362 115.9L230.821 109.496L266.439 106.092C266.752 108.244 267.043 110.354 267.308 112.366Z" fill="#EAEAEA"/>
<path d="M265.344 98.7921L231.349 102.04L231.808 95.6411L264.357 92.5331C264.686 94.5681 265.015 96.6721 265.344 98.7921Z" fill="#EAEAEA"/>
<path d="M263.164 85.2451L232.342 88.1852L232.801 81.7861L262.112 78.9861C262.42 80.7891 262.776 82.9091 263.164 85.2451Z" fill="#EAEAEA"/>
<path d="M305.694 115.976L292.778 124.328L276.086 99.0302C279.534 93.1012 285.128 88.9742 289.099 86.6002C295.901 98.3882 305.694 115.976 305.694 115.976Z" fill="#FF94A9"/>
<path d="M289.098 86.5992C285.127 88.9732 279.533 93.1002 276.085 99.0292L272.298 93.2892C272.535 93.6882 274.008 96.7042 271.046 106.922C267.841 117.982 273.226 131.955 272.843 131.702C272.455 131.443 264.637 124.224 262.074 112.576C259.506 100.933 254.165 64.6082 249.849 58.5392C269.315 61.1882 280.466 73.2032 282.969 76.4292C283.73 77.4062 286.131 81.4522 289.098 86.5992Z" fill="#4CA1FF"/>
<path d="M211.107 108.497C211.107 108.497 199.382 92.6002 203.997 77.2162C208.612 61.8322 234.209 58.5402 234.209 58.5402C234.209 58.5402 242.329 77.8572 240.791 102.535C239.253 127.213 230.663 156.059 228.099 155.289C225.535 154.52 205.05 148.291 202.921 139.483C203.869 133.752 213.217 115.163 211.107 108.497Z" fill="#4CA1FF"/>
<path d="M275.211 136.912L290.086 103.658C290.429 102.892 291.452 102.374 292.371 102.501L312.349 105.263C313.268 105.39 315.004 107.363 314.661 108.13L298.518 140.134C298.175 140.9 297.152 141.418 296.233 141.291L276.826 140.015C275.907 139.889 274.868 137.678 275.211 136.912Z" fill="#90A6FF"/>
<path d="M277.414 140.208L297.392 142.971C298.311 143.098 299.335 142.58 299.677 141.814L314.552 108.56C314.895 107.794 314.427 107.07 313.508 106.943L293.53 104.181C292.61 104.054 291.587 104.572 291.245 105.338L276.37 138.592C276.026 139.357 276.494 140.081 277.414 140.208Z" fill="#C7DDFF"/>
<path d="M306.903 115.954C307.863 116.087 308.931 115.546 309.288 114.746L311.013 110.891C311.371 110.091 310.883 109.336 309.923 109.203C308.963 109.07 307.895 109.611 307.537 110.411L305.813 114.266C305.455 115.065 305.943 115.821 306.903 115.954Z" fill="#4A0945"/>
<path d="M211.107 108.497C215.535 100.292 226.432 98.8821 226.432 98.8821L234.209 116.958L269.636 123.1C269.636 123.1 273.354 120.467 275.613 120.179C277.872 119.891 284.218 116.044 285.805 116.91C287.391 117.775 281.142 123.641 281.142 123.641C281.142 123.641 283.93 124.266 287.921 124.651C291.911 125.036 296.911 123.113 296.43 125.516C295.949 127.92 289.988 135.708 284.7 135.996C279.412 136.284 269.316 133.624 269.316 133.624L229.946 132.927C226.295 132.862 222.967 130.821 221.254 127.596L211.107 108.497Z" fill="#FF94A9"/>
<path d="M226.432 98.8821L220.663 82.8481" stroke="#0063BC" stroke-width="1.079" stroke-miterlimit="10" stroke-linecap="round" stroke-linejoin="round"/>
<path d="M272.298 93.2892C266.334 84.0742 265.469 76.5752 265.469 76.5752" stroke="#0063BC" stroke-width="1.079" stroke-miterlimit="10" stroke-linecap="round" stroke-linejoin="round"/>
<path d="M301.089 138.657C296.153 138.016 297.712 131.765 297.712 128.624C297.712 125.483 297.776 122.663 299.443 122.47C301.11 122.278 306.173 125.931 307.712 125.803C309.25 125.675 310.191 132.824 301.089 138.657Z" fill="#FF94A9"/>
<path d="M251.732 53.2411C251.327 55.3611 251.009 57.6541 250.734 59.5591C250.669 60.0121 250.605 60.4441 250.545 60.8431C250.362 62.0731 250.205 63.0281 250.049 63.4971C249.628 64.7861 246.353 67.4081 241.838 65.4231C237.322 63.4321 234.279 61.1821 234.209 58.5391C234.209 58.5391 236.707 50.5601 237.516 45.2731C237.597 44.7331 237.662 44.2211 237.71 43.7461C237.748 43.2981 237.769 42.8831 237.764 42.5161L238.8 43.3091L239.442 43.8001L251.732 53.2411Z" fill="#FF94A9"/>
<path d="M251.732 53.2411C251.327 55.3611 251.009 57.6541 250.734 59.5591C250.669 60.0121 250.605 60.4441 250.545 60.8431C241.012 63.0821 237.532 56.0041 237.516 45.2731C237.516 44.7711 237.521 44.2591 237.538 43.7411L237.711 43.7461L239.443 43.8001L251.732 53.2411Z" fill="#D9568E"/>
<path d="M262.926 29.5172C253.774 37.6102 240.767 33.7782 240.767 33.7782C240.767 33.7782 240.62 42.0342 239.5 42.8532C238.38 43.6722 239.332 36.0642 234.515 36.8072C229.698 37.5502 232.327 46.4782 237.388 45.2152C237.388 45.2152 240.712 57.6632 251.466 57.1632C262.22 56.6642 262.413 45.1012 262.926 29.5172Z" fill="#FF94A9"/>
<path d="M251.888 50.8982C251.77 52.2202 250.603 53.1972 249.28 53.0792C247.958 52.9612 246.981 51.7932 247.099 50.4712L251.888 50.8982Z" fill="white"/>
<path d="M235.523 43.1621C237.668 43.1131 236.747 39.0511 234.517 39.7051" stroke="#D9568E" stroke-width="0.5395" stroke-miterlimit="10" stroke-linecap="round" stroke-linejoin="round"/>
<path d="M252.989 40.6151C253.077 40.7791 254.309 43.3611 255.209 45.2491C255.673 46.2231 255.048 47.3661 253.977 47.5001L251.152 47.8561" stroke="#D9568E" stroke-width="0.5395" stroke-miterlimit="10" stroke-linecap="round" stroke-linejoin="round"/>
<path d="M246.617 43.0101C246.496 43.5561 246.84 44.0961 247.386 44.2171C247.932 44.3381 248.472 43.9941 248.593 43.4481C248.714 42.9021 248.37 42.3621 247.824 42.2411C247.279 42.1201 246.738 42.4641 246.617 43.0101Z" fill="#4A0945"/>
<path d="M257.711 42.0572C257.59 42.6032 257.934 43.1432 258.48 43.2642C259.026 43.3852 259.566 43.0412 259.687 42.4952C259.808 41.9492 259.464 41.4092 258.918 41.2882C258.372 41.1672 257.832 41.5122 257.711 42.0572Z" fill="#4A0945"/>
<path d="M249.489 39.4121C249.489 39.4121 246.939 37.9272 245.191 40.0342" stroke="#4A0945" stroke-width="0.5395" stroke-miterlimit="10" stroke-linecap="round"/>
<path d="M260.475 38.9761C260.475 38.9761 257.925 37.4911 256.177 39.5981" stroke="#4A0945" stroke-width="0.5395" stroke-miterlimit="10" stroke-linecap="round"/>
<path opacity="0.41" d="M404.659 131.177L332.285 145.075C330.716 145.376 329.689 144.451 329.991 143.008L339.592 97.1372C339.894 95.6942 341.411 94.2802 342.98 93.9792L415.354 80.0812C416.923 79.7802 417.95 80.7052 417.648 82.1482L408.047 128.019C407.745 129.462 406.228 130.876 404.659 131.177Z" fill="#6D4AFF"/>
<path opacity="0.41" d="M407.736 134.573L335.362 148.471C333.793 148.772 332.766 147.847 333.068 146.404L342.669 100.533C342.971 99.0902 344.488 97.6762 346.057 97.3752L418.431 83.4772C420 83.1762 421.027 84.1012 420.725 85.5442L411.124 131.415C410.822 132.858 409.305 134.272 407.736 134.573Z" stroke="#6D4AFF" stroke-width="0.5395" stroke-miterlimit="10"/>
<path d="M343.336 122.956C350.705 121.541 350.302 127.219 357.057 125.921C363.812 124.624 366.085 114.703 370.998 113.76C375.911 112.817 373.942 117.53 377.933 116.764C381.925 115.998 381.513 108.579 389.598 107.027C397.684 105.474 396.693 97.5352 407.849 95.3932" stroke="white" stroke-width="1.6185" stroke-miterlimit="10" stroke-linecap="round" stroke-linejoin="round"/>
<path d="M347.69 102.157L353.63 101.016" stroke="white" stroke-width="1.6185" stroke-miterlimit="10" stroke-linecap="round" stroke-linejoin="round"/>
<path d="M346.803 106.392L357.857 104.269" stroke="white" stroke-width="1.6185" stroke-miterlimit="10" stroke-linecap="round" stroke-linejoin="round"/>
<path d="M358.958 227.259L335.258 236.334L314.706 217.664L338.406 208.59L358.958 227.259Z" fill="#A275FF"/>
<path d="M365.721 202.799L358.958 227.259L338.406 208.59L345.169 184.13L365.721 202.799Z" fill="#6D4AFF"/>
<path d="M314.706 217.664L321.674 193.39L345.169 184.13L338.406 208.59L314.706 217.664Z" fill="#CAB1FF"/>
<path d="M400.914 190.242L395.838 165.377L417.617 148.155L422.693 173.02L400.914 190.242Z" fill="#A275FF"/>
<path d="M423.939 200.914L400.914 190.242L422.693 173.02L445.718 183.692L423.939 200.914Z" fill="#6D4AFF"/>
<path d="M417.617 148.155L440.425 158.998L445.718 183.692L422.693 173.02L417.617 148.155Z" fill="#CAB1FF"/>
<path opacity="0.41" d="M338.127 179.758L284.906 189.978C283.097 190.325 281.913 189.259 282.261 187.595L291.821 141.92C292.169 140.257 293.918 138.627 295.726 138.28L348.947 128.06C350.756 127.713 351.94 128.779 351.592 130.443L342.032 176.118C341.685 177.781 339.936 179.411 338.127 179.758Z" fill="#6D4AFF"/>
<path opacity="0.41" d="M334.163 175.339L280.942 185.559C279.133 185.906 277.949 184.84 278.297 183.176L287.857 137.501C288.205 135.838 289.954 134.208 291.762 133.86L344.983 123.64C346.792 123.293 347.976 124.359 347.628 126.023L338.068 171.698C337.721 173.362 335.972 174.992 334.163 175.339Z" stroke="#6D4AFF" stroke-width="0.5395" stroke-miterlimit="10"/>
<path d="M333.71 155.797C331.926 164.32 322.963 172.671 313.7 174.449C304.431 176.229 298.365 170.764 300.149 162.241C301.933 153.718 310.89 145.368 320.159 143.589L316.929 159.019L332.002 146.809C333.785 149.011 334.48 152.117 333.71 155.797Z" fill="white"/>
<path d="M332.003 146.809L316.93 159.019L320.16 143.589C325.425 142.578 329.655 143.91 332.003 146.809Z" fill="#6D4AFF"/>
<path opacity="0.41" d="M281.517 167.797L308.413 112.578L348.17 96.9692" stroke="#6D4AFF" stroke-width="0.5395" stroke-miterlimit="10"/>
<path opacity="0.41" d="M314.706 217.664L308.413 112.578L365.721 202.799" stroke="#6D4AFF" stroke-width="0.5395" stroke-miterlimit="10"/>
<path opacity="0.41" d="M417.617 148.155L308.413 112.578L400.914 190.242" stroke="#6D4AFF" stroke-width="0.5395" stroke-miterlimit="10"/>
<path d="M107.084 277.122C107.084 277.122 112.137 318.155 113.666 319.132C115.195 320.109 135.523 275.527 134.177 274.038C132.83 272.549 122.401 263.595 122.401 263.595" fill="#8136FF"/>
<path d="M97.9466 288.64C97.9466 288.64 84.8956 327.869 85.8566 329.408C86.8186 330.946 124.317 299.409 123.74 297.486C123.163 295.563 117.588 282.999 117.588 282.999" fill="#A275FF"/>
<path d="M117.862 144.882C117.862 144.882 98.4976 189.413 96.4076 198.259C94.3176 207.105 112.513 274.795 112.513 274.795L126.752 267.488L123.163 201.465L145.085 149.94" fill="#2B022B"/>
<path d="M142.746 151.696C142.746 151.696 87.0096 191.208 79.8306 199.156C72.6516 207.104 97.9456 288.64 97.9456 288.64C97.9456 288.64 118.359 283.512 117.587 282.999C116.815 282.486 107.912 214.333 107.912 214.333C107.912 214.333 160.34 193.002 167.776 179.669C175.212 166.336 174.954 153.516 174.954 153.516" fill="#4A0945"/>
<path d="M124.068 111.638C118.241 118.09 110.58 126.539 109.992 127.014C109.032 127.78 83.8366 129.641 83.8366 129.641L84.6296 116.051L102.299 113.067C102.299 113.067 106.906 106.199 112.863 98.3981C119.428 102.088 122.735 108.411 124.068 111.638Z" fill="#D9568E"/>
<path d="M186.501 133.549C185.363 134.542 184.181 135.475 182.967 136.338C182.967 136.338 182.514 137.493 181.839 139.268C181.397 140.417 180.868 141.82 180.307 143.336C179.568 145.316 178.78 147.479 178.079 149.508C176.881 152.939 175.921 155.993 175.856 157.11C175.662 160.185 162.875 161.243 149.026 157.784C135.182 154.32 115.857 145.187 116.051 142.975C116.202 141.227 120.027 136.085 122.277 132.287H122.282C122.714 131.559 123.086 130.879 123.366 130.28C123.474 130.053 123.566 129.843 123.641 129.643C123.986 128.742 124.623 126.627 125.373 123.984C125.772 122.576 126.204 121.022 126.641 119.42C127.229 117.262 127.833 115.023 128.389 112.951C129.614 108.349 130.595 104.567 130.655 104.335L130.628 104.362C130.288 104.734 127.499 107.842 124.068 111.64C123.965 111.397 123.858 111.133 123.728 110.852C122.212 107.469 118.932 101.81 112.862 98.4002C119.789 89.3312 128.551 78.9992 134.027 76.7282C144.218 72.4982 167.967 77.8832 167.967 77.8832L171.625 78.2661C171.625 78.2661 192.391 82.7551 199.572 94.5481C206.145 105.349 198.856 122.808 186.501 133.549Z" fill="#A275FF"/>
<path d="M180.308 143.336C179.569 145.316 178.781 147.479 178.08 149.508C162.688 146.546 140.746 139.883 123.368 130.28C123.476 130.053 123.568 129.843 123.643 129.643C123.988 128.742 124.625 126.627 125.375 123.984C142.93 133.965 165.547 140.59 180.308 143.336Z" fill="#C1B0FF"/>
<path d="M186.501 133.549C185.363 134.542 184.181 135.475 182.967 136.338C182.967 136.338 182.514 137.493 181.839 139.268C166.064 136.133 143.879 129.26 126.642 119.419C127.23 117.261 127.834 115.022 128.39 112.95C146.75 123.822 171.346 130.906 186.501 133.549Z" fill="#C1B0FF"/>
<path d="M80.4937 127.101C83.1877 123.866 82.8446 118.42 86.5296 120.841C90.2146 123.262 88.2277 130.404 88.2277 130.404" fill="#FF94A9"/>
<path d="M113.917 147.177L105.291 111.784C105.092 110.969 104.18 110.275 103.252 110.234L83.1036 109.344C82.1766 109.303 80.1126 110.931 80.3116 111.746L90.4106 146.139C90.6096 146.954 91.5226 147.648 92.4496 147.689L111.769 149.939C112.695 149.979 114.115 147.992 113.917 147.177Z" fill="#90A6FF"/>
<path d="M111.155 150.021L91.0066 149.13C90.0796 149.089 89.1666 148.395 88.9676 147.58L80.3416 112.187C80.1426 111.372 80.7336 110.744 81.6606 110.785L101.809 111.675C102.736 111.716 103.649 112.41 103.848 113.226L112.474 148.619C112.673 149.435 112.082 150.062 111.155 150.021Z" fill="#C7DDFF"/>
<path d="M86.5296 120.84C85.5616 120.797 84.6086 120.073 84.4016 119.222L83.4016 115.119C83.1936 114.268 83.8106 113.613 84.7786 113.656C85.7466 113.699 86.6996 114.423 86.9066 115.274L87.9066 119.377C88.1146 120.228 87.4976 120.883 86.5296 120.84Z" fill="#4A0945"/>
<path d="M81.0187 126.551C86.3187 127.263 93.5776 125.828 95.3456 126.667C97.1136 127.506 98.1737 138.417 94.7587 139.627C91.3447 140.837 86.1827 141.4 83.6037 139.037C81.0247 136.674 78.3237 128.457 81.0187 126.551Z" fill="#FF94A9"/>
<path d="M167.777 124.543L153.414 139.542L121.24 132.042C121.24 132.042 109.125 120.376 107.587 122.01C106.049 123.645 109.702 131.144 109.702 131.144C109.702 131.144 94.3177 129.413 93.3557 129.99C92.3947 130.567 97.2976 142.297 102.779 143.643C108.26 144.989 120.471 144.893 120.471 144.893L153.597 155.757C157.282 156.965 161.331 156.096 164.195 153.481L182.968 136.336C182.968 136.338 183.161 125.152 167.777 124.543Z" fill="#FF94A9"/>
<path d="M167.777 124.543L180.853 105.954" stroke="#6D38C9" stroke-width="1.079" stroke-miterlimit="10" stroke-linecap="round" stroke-linejoin="round"/>
<path d="M130.628 104.36L133.932 93.4551" stroke="#6D38C9" stroke-width="1.079" stroke-miterlimit="10" stroke-linecap="round" stroke-linejoin="round"/>
<path d="M152.209 48.1521C144.316 42.5751 145.953 37.3831 149.044 37.4471C152.135 37.5111 154.233 38.3441 154.233 38.3441C154.233 38.3441 150.46 33.9211 153.221 31.6131C155.982 29.3051 179.25 36.0361 182.647 39.8821C186.044 43.7281 183.096 50.8431 183.096 50.8431C183.096 50.8431 190.083 54.1461 184.058 60.5071C178.033 66.8681 173.93 71.6121 170.341 70.4581" fill="#4A0945"/>
<path d="M173.417 79.3532C172.775 81.9162 169.317 83.4532 164.477 84.4192C159.638 85.3792 157.01 82.1102 156.881 80.7612C156.816 80.1032 156.924 78.6142 157.064 76.7692C157.21 74.8482 157.393 72.5392 157.458 70.3812L172.235 63.4912L173.417 62.9412C172.392 67.3652 173.417 79.3532 173.417 79.3532Z" fill="#FF94A9"/>
<path d="M172.392 63.5191C171.459 71.9682 165.546 79.3051 157.065 76.7691C157.211 74.8481 157.394 72.5391 157.459 70.3811L172.236 63.4911L172.392 63.5191Z" fill="#D9568E"/>
<path d="M151.674 43.1241C158.855 53.0081 172.383 52.0851 172.383 52.0851C172.383 52.0851 170.738 60.1761 171.653 61.2181C172.569 62.2601 173.288 54.6261 177.83 56.3961C182.372 58.1661 177.87 66.3111 173.203 63.9821C173.203 63.9821 167.261 75.4141 156.87 72.5961C146.481 69.7781 148.798 58.4491 151.674 43.1241Z" fill="#FF94A9"/>
<path d="M175.469 62.3821C173.386 61.8691 175.165 58.1031 177.2 59.2251" stroke="#D9568E" stroke-width="0.5395" stroke-miterlimit="10" stroke-linecap="round" stroke-linejoin="round"/>
<path d="M159.348 56.3731C159.227 56.5141 157.464 58.7681 156.177 60.4161C155.513 61.2661 155.876 62.5171 156.892 62.8811L159.573 63.8411" stroke="#D9568E" stroke-width="0.5395" stroke-miterlimit="10" stroke-linecap="round" stroke-linejoin="round"/>
<path d="M166.925 60.5082C166.925 61.0672 166.472 61.5202 165.913 61.5202C165.354 61.5202 164.901 61.0672 164.901 60.5082C164.901 59.9492 165.354 59.4962 165.913 59.4962C166.472 59.4962 166.925 59.9492 166.925 60.5082Z" fill="#4A0945"/>
<path d="M154.426 56.7582C154.426 57.3172 153.973 57.7702 153.414 57.7702C152.855 57.7702 152.402 57.3172 152.402 56.7582C152.402 56.1992 152.855 55.7462 153.414 55.7462C153.973 55.7462 154.426 56.1992 154.426 56.7582Z" fill="#4A0945"/>
<path d="M164.901 56.3731C164.901 56.3731 167.712 55.4762 168.962 57.9112" stroke="#4A0945" stroke-width="0.5395" stroke-miterlimit="10" stroke-linecap="round"/>
<path d="M152.395 53.1511C152.395 53.1511 155.206 52.2541 156.456 54.6891" stroke="#4A0945" stroke-width="0.5395" stroke-miterlimit="10" stroke-linecap="round"/>
<path d="M159.182 66.9272C159.182 66.9272 161.02 68.0222 163.159 66.6812" stroke="#D9568E" stroke-width="0.5395" stroke-miterlimit="10" stroke-linecap="round" stroke-linejoin="round"/>
<path opacity="0.45" d="M18.5137 170.515L90.8877 184.413C92.4567 184.714 93.4837 183.789 93.1817 182.346L83.5807 136.475C83.2787 135.032 81.7617 133.618 80.1927 133.317L7.81865 119.418C6.24965 119.117 5.22266 120.042 5.52466 121.485L15.1257 167.356C15.4277 168.8 16.9437 170.214 18.5137 170.515Z" fill="#4CA1FF"/>
<path opacity="0.45" d="M14.0416 173.525L86.4156 187.423C87.9846 187.724 89.0116 186.799 88.7106 185.356L79.1096 139.485C78.8076 138.042 77.2906 136.628 75.7216 136.327L3.34765 122.429C1.77865 122.128 0.750648 123.053 1.05265 124.496L10.6536 170.367C10.9556 171.809 12.4726 173.223 14.0416 173.525Z" stroke="#4CA1FF" stroke-width="0.5395" stroke-miterlimit="10"/>
<path d="M72.9136 146.013L19.3976 134.22" stroke="white" stroke-width="1.6185" stroke-miterlimit="10" stroke-linecap="round" stroke-linejoin="round"/>
<path d="M74.3316 153.879L20.8156 142.087" stroke="white" stroke-width="1.6185" stroke-miterlimit="10" stroke-linecap="round" stroke-linejoin="round"/>
<path d="M75.7486 161.745L22.2326 149.953" stroke="white" stroke-width="1.6185" stroke-miterlimit="10" stroke-linecap="round" stroke-linejoin="round"/>
<path d="M77.1666 169.612L43.5367 162.201" stroke="white" stroke-width="1.6185" stroke-miterlimit="10" stroke-linecap="round" stroke-linejoin="round"/>
<path opacity="0.45" d="M89.2166 204.492L132.527 212.809C133.466 212.989 134.081 212.436 133.9 211.572L128.154 184.122C127.973 183.258 127.065 182.412 126.126 182.232L82.8156 173.915C81.8766 173.735 81.2616 174.289 81.4426 175.152L87.1886 202.602C87.3696 203.466 88.2776 204.312 89.2166 204.492Z" fill="#4CA1FF"/>
<path opacity="0.45" d="M85.7356 207.825L129.046 216.142C129.985 216.322 130.6 215.769 130.419 214.905L124.673 187.455C124.492 186.592 123.584 185.745 122.646 185.565L79.3356 177.248C78.3966 177.068 77.7816 177.622 77.9626 178.485L83.7086 205.935C83.8896 206.799 84.7966 207.645 85.7356 207.825Z" stroke="#4CA1FF" stroke-width="0.5395" stroke-miterlimit="10"/>
<path d="M121.771 189.829L89.7457 182.772" stroke="white" stroke-width="0.9686" stroke-miterlimit="10" stroke-linecap="round" stroke-linejoin="round"/>
<path d="M122.62 194.537L90.5947 187.48" stroke="white" stroke-width="0.9686" stroke-miterlimit="10" stroke-linecap="round" stroke-linejoin="round"/>
<path d="M123.468 199.244L91.4427 192.187" stroke="white" stroke-width="0.9686" stroke-miterlimit="10" stroke-linecap="round" stroke-linejoin="round"/>
<path d="M124.316 203.951L104.192 199.517" stroke="white" stroke-width="0.9686" stroke-miterlimit="10" stroke-linecap="round" stroke-linejoin="round"/>
<path d="M66.7967 268.873L52.1757 248.129L65.2227 223.62L79.8427 244.363L66.7967 268.873Z" fill="#4CA1FF"/>
<path d="M92.1687 269.417L66.7967 268.873L79.8427 244.363L105.215 244.908L92.1687 269.417Z" fill="#0063BC"/>
<path d="M65.2227 223.62L90.4647 224.408L105.215 244.908L79.8427 244.363L65.2227 223.62Z" fill="#80C3FF"/>
<path d="M22.8096 107.649L20.8156 96.3112L30.9046 88.7722L32.8986 100.11L22.8096 107.649Z" fill="#4CA1FF"/>
<path d="M33.1176 112.773L22.8096 107.649L32.8986 100.11L43.2066 105.234L33.1176 112.773Z" fill="#0063BC"/>
<path d="M30.9046 88.7722L41.1126 93.9712L43.2066 105.234L32.8986 100.11L30.9046 88.7722Z" fill="#80C3FF"/>
<path opacity="0.45" d="M5.64165 120.238L85.6546 117.248L93.1816 182.346" stroke="#4CA1FF" stroke-width="0.5395" stroke-miterlimit="10"/>
<path opacity="0.45" d="M82.8167 173.915L85.6546 117.248L128.155 184.122" stroke="#4CA1FF" stroke-width="0.5395" stroke-miterlimit="10"/>
<path opacity="0.45" d="M52.1757 248.129L85.6547 117.248L105.215 244.908" stroke="#4CA1FF" stroke-width="0.5395" stroke-miterlimit="10"/>
<path opacity="0.45" d="M30.9046 88.7722L85.6546 117.248L33.1176 112.773" stroke="#4CA1FF" stroke-width="0.5395" stroke-miterlimit="10"/>
</svg>
